<svg width="239" height="235" viewBox="0 0 239 235" fill="none" xmlns="http://www.w3.org/2000/svg">
<path d="M0 152V0.959991H7.68V152H0ZM15.36 152V0.959991H38.4V152H15.36ZM61.44 152V0.959991H69.12V152H61.44ZM76.8 152V0.959991H84.48V152H76.8ZM92.16 152V0.959991H115.2V152H92.16ZM44.544 228.288L52.224 220.608C57.344 215.488 61.184 211.392 63.744 208.32C66.304 205.419 68.352 202.517 69.888 199.616C71.424 196.885 72.192 193.899 72.192 190.656C72.192 186.901 71.3387 184.171 69.632 182.464C67.7547 180.757 65.28 179.904 62.208 179.904C57.4293 179.904 53.4187 181.867 50.176 185.792C49.4933 186.816 49.152 187.669 49.152 188.352C49.152 188.864 49.152 189.205 49.152 189.376L48.64 189.888L48.128 189.376L43.264 185.536C45.1413 181.781 47.7013 178.965 50.944 177.088C54.1867 175.04 57.9413 174.016 62.208 174.016C67.1573 174.016 71.2533 175.552 74.496 178.624C77.568 181.696 79.104 185.792 79.104 190.912C79.104 194.325 78.2507 197.653 76.544 200.896C75.008 204.139 72.96 207.211 70.4 210.112C67.84 213.013 64.256 216.768 59.648 221.376L53.248 227.776H75.264C76.288 227.776 77.056 227.776 77.568 227.776C77.9093 227.605 78.336 227.349 78.848 227.008H79.36V233.664H44.544V228.288ZM123 152V0.959991H130.68V152H123ZM138.36 152V0.959991H161.4V152H138.36ZM184.44 152V0.959991H207.48V152H184.44ZM215.16 152V0.959991H222.84V152H215.16ZM230.52 152V0.959991H238.2V152H230.52ZM185.464 234.688C179.661 234.688 175.139 232.213 171.896 227.264C168.653 222.144 167.032 215.232 167.032 206.528C167.032 199.701 167.885 193.813 169.592 188.864C171.299 183.915 173.688 180.16 176.76 177.6C180.003 175.04 183.757 173.76 188.024 173.76C192.973 173.76 197.325 175.552 201.08 179.136L196.216 184.768L195.704 184.256C195.533 183.573 195.363 182.976 195.192 182.464C195.021 182.123 194.509 181.611 193.656 180.928C192.291 180.075 190.413 179.648 188.024 179.648C185.976 179.648 183.928 180.245 181.88 181.44C179.661 182.805 177.699 185.195 175.992 188.608C174.456 192.021 173.688 196.629 173.688 202.432C174.883 200.213 176.675 198.507 179.064 197.312C181.283 196.117 183.672 195.52 186.232 195.52C189.133 195.52 191.864 196.288 194.424 197.824C196.813 199.531 198.776 201.835 200.312 204.736C201.677 207.637 202.36 210.965 202.36 214.72C202.36 218.645 201.592 222.144 200.056 225.216C198.691 228.117 196.643 230.421 193.912 232.128C191.352 233.835 188.536 234.688 185.464 234.688ZM185.72 228.8C188.621 228.8 191.011 227.52 192.888 224.96C194.936 222.571 195.96 219.243 195.96 214.976C195.96 211.904 195.448 209.344 194.424 207.296C193.4 205.248 192.12 203.712 190.584 202.688C188.877 201.664 187.171 201.152 185.464 201.152C183.245 201.152 181.112 201.92 179.064 203.456C177.016 204.992 175.309 206.869 173.944 209.088C173.773 210.112 173.688 210.965 173.688 211.648C173.688 214.379 174.2 217.109 175.224 219.84C176.248 222.4 177.699 224.533 179.576 226.24C181.283 227.947 183.331 228.8 185.72 228.8Z" fill="white"/>
</svg>
