<svg width="25" height="42" viewBox="0 0 25 42" fill="none" xmlns="http://www.w3.org/2000/svg">
<path d="M6.0872 27.3642C3.98439 25.4531 0.24845 14.9606 3.10361 8.97891C5.95876 2.99719 11.3189 1.56188 15.0736 3.25313C18.8283 4.94438 22.2342 13.3523 21.9844 18.262C21.7345 23.1717 18.7425 27.2658 15.8297 27.7059C12.9169 28.1461 6.0872 27.3642 6.0872 27.3642Z" fill="#7FB870"/>
<path d="M5.46797 11.0265C5.46797 11.0265 3.29344 14.3194 6.33797 26.3119L7.27032 26.4376C7.27032 26.4376 4.90875 15.0652 5.46797 11.0265ZM8.69906 9.53537C8.69906 9.53537 6.77297 14.7549 9.50672 26.3119L10.4391 26.4376C10.4391 26.4376 8.13985 13.5741 8.69906 9.53537ZM12.0544 9.28693C12.0544 9.28693 10.3144 14.8791 12.3028 25.9393L13.2347 26.0016C13.2347 26.0016 12.7378 14.1952 12.0544 9.28693ZM15.037 8.85193C15.037 8.85193 15.0994 20.5332 14.8495 26.0011L15.7814 26.1254C15.7814 26.1254 16.4663 17.3021 15.037 8.85193ZM17.7089 10.0313C17.7089 10.0313 21.81 16.6796 17.64 26.0002L16.7081 26.1244C16.7081 26.1244 19.3242 20.844 17.7089 10.0313Z" fill="#458E6B"/>
<path d="M14.3222 5.12346L13.6233 1.39549L15.4875 3.16643L17.1652 -0.00231934L17.4914 3.3994L20.1478 2.84018L17.1652 6.00893L14.3222 5.12346Z" fill="#FFEB05"/>
<path d="M3.55219 28.125H20.9166V38.6044C20.9166 39.431 20.5882 40.2237 20.0037 40.8082C19.4192 41.3927 18.6264 41.7211 17.7998 41.7211H6.6689C5.8423 41.7211 5.04955 41.3927 4.46505 40.8082C3.88055 40.2237 3.55219 39.431 3.55219 38.6044V28.125Z" fill="#F5CAC5"/>
<path d="M0.273254 25.5066H24.1954V28.9383H0.273254V25.5066Z" fill="#F5CAC5"/>
<path d="M22.4798 28.9378H1.98888C1.53429 28.9364 1.0987 28.7552 0.777252 28.4338C0.455804 28.1123 0.274615 27.6768 0.273254 27.2222H24.1954C24.1941 27.6768 24.0129 28.1123 23.6914 28.4338C23.37 28.7552 22.9344 28.9364 22.4798 28.9378Z" fill="#C7A19D"/>
<path d="M7.38845 31.2337C7.39454 31.8403 6.53673 32.0855 6.53673 32.0855C6.53673 32.0855 5.68501 31.8464 5.68501 31.2337C5.68501 30.765 6.17533 30.5597 6.53673 31.0744C6.81236 30.5231 7.38376 30.7636 7.38845 31.2337ZM10.6458 33.3956C10.6519 34.0022 9.79408 34.2473 9.79408 34.2473C9.79408 34.2473 8.94236 34.0083 8.94236 33.3956C8.94236 32.9269 9.43267 32.7215 9.79408 33.2362C10.0697 32.685 10.6406 32.9255 10.6458 33.3956ZM16.2258 31.2337C16.2319 31.8403 15.3741 32.0855 15.3741 32.0855C15.3741 32.0855 14.5224 31.8464 14.5224 31.2337C14.5224 30.765 15.0127 30.5597 15.3741 31.0744C15.6497 30.5231 16.2188 30.7636 16.2258 31.2337ZM18.6975 33.7687C18.7036 34.3753 17.8458 34.6205 17.8458 34.6205C17.8458 34.6205 16.9941 34.3814 16.9941 33.7687C16.9941 33.3 17.4844 33.0947 17.8458 33.6094C18.1214 33.0576 18.6924 33.2981 18.6975 33.7687ZM6.96986 36.1598C6.97595 36.7664 6.11814 37.0115 6.11814 37.0115C6.11814 37.0115 5.26642 36.7725 5.26642 36.1598C5.26642 35.6911 5.75673 35.4858 6.11814 36.0005C6.39376 35.4492 6.9647 35.6897 6.96986 36.1598ZM10.2267 39.0675C10.2328 39.674 9.37501 39.9192 9.37501 39.9192C9.37501 39.9192 8.52329 39.6801 8.52329 39.0675C8.52329 38.5987 9.01361 38.3934 9.37501 38.9081C9.65111 38.3569 10.222 38.5973 10.2267 39.0675ZM14.6888 36.1598C14.6949 36.7664 13.837 37.0115 13.837 37.0115C13.837 37.0115 12.9844 36.7725 12.9844 36.1598C12.9844 35.6911 13.4747 35.4858 13.8361 36.0005C14.1127 35.4492 14.6841 35.6897 14.6888 36.1598ZM18.6516 39.0675C18.6577 39.674 17.7999 39.9192 17.7999 39.9192C17.7999 39.9192 16.9481 39.6801 16.9481 39.0675C16.9481 38.5987 17.4384 38.3934 17.7999 38.9081C18.0755 38.3569 18.6469 38.5973 18.6516 39.0675Z" fill="#3B5174"/>
</svg>
