<svg width="327" height="215" viewBox="0 0 327 215" fill="none" xmlns="http://www.w3.org/2000/svg">
<circle cx="322.5" cy="60.3" r="2.5" transform="rotate(90 322.5 60.3)" fill="white"/>
<circle cx="322.5" cy="115.1" r="2.5" transform="rotate(90 322.5 115.1)" fill="white"/>
<circle cx="322.5" cy="169.9" r="2.5" transform="rotate(90 322.5 169.9)" fill="white"/>
<circle cx="267.214" cy="5.5" r="2.5" transform="rotate(90 267.214 5.5)" fill="white"/>
<circle cx="267.214" cy="60.3" r="2.5" transform="rotate(90 267.214 60.3)" fill="white"/>
<circle cx="267.214" cy="115.1" r="2.5" transform="rotate(90 267.214 115.1)" fill="white"/>
<circle cx="267.214" cy="169.9" r="2.5" transform="rotate(90 267.214 169.9)" fill="white"/>
<circle cx="211.928" cy="5.5" r="2.5" transform="rotate(90 211.928 5.5)" fill="white"/>
<circle cx="211.928" cy="60.3" r="2.5" transform="rotate(90 211.928 60.3)" fill="white"/>
<circle cx="211.928" cy="115.1" r="2.5" transform="rotate(90 211.928 115.1)" fill="white"/>
<circle cx="211.928" cy="169.9" r="2.5" transform="rotate(90 211.928 169.9)" fill="white"/>
<circle cx="156.643" cy="5.5" r="2.5" transform="rotate(90 156.643 5.5)" fill="white"/>
<circle cx="156.643" cy="60.3" r="2.5" transform="rotate(90 156.643 60.3)" fill="white"/>
<circle cx="156.643" cy="115.1" r="2.5" transform="rotate(90 156.643 115.1)" fill="white"/>
<circle cx="156.643" cy="169.9" r="2.5" transform="rotate(90 156.643 169.9)" fill="white"/>
<circle cx="101.357" cy="5.5" r="2.5" transform="rotate(90 101.357 5.5)" fill="white"/>
<circle cx="101.357" cy="60.3" r="2.5" transform="rotate(90 101.357 60.3)" fill="white"/>
<circle cx="101.357" cy="115.1" r="2.5" transform="rotate(90 101.357 115.1)" fill="white"/>
<circle cx="101.357" cy="169.9" r="2.5" transform="rotate(90 101.357 169.9)" fill="white"/>
<circle cx="46.0713" cy="5.5" r="2.5" transform="rotate(90 46.0713 5.5)" fill="white"/>
<circle cx="46.0713" cy="60.3" r="2.5" transform="rotate(90 46.0713 60.3)" fill="white"/>
<circle cx="46.0713" cy="115.1" r="2.5" transform="rotate(90 46.0713 115.1)" fill="white"/>
<circle cx="46.0713" cy="169.9" r="2.5" transform="rotate(90 46.0713 169.9)" fill="white"/>
<circle cx="322.5" cy="5.5" r="2.5" transform="rotate(90 322.5 5.5)" fill="white"/>
<path d="M0.868272 309.868C-3.62276 314.359 -3.62276 321.641 0.868272 326.132C5.3593 330.623 12.6407 330.623 17.1317 326.132L0.868272 309.868ZM326.5 12C326.5 5.64872 321.351 0.499999 315 0.499999H211.5C205.149 0.499999 200 5.64872 200 12C200 18.3513 205.149 23.5 211.5 23.5L303.5 23.5L303.5 115.5C303.5 121.851 308.649 127 315 127C321.351 127 326.5 121.851 326.5 115.5V12ZM9 318L17.1317 326.132L323.132 20.1317L315 12L306.868 3.86827L0.868272 309.868L9 318Z" fill="white"/>
</svg>
