<svg width="555" height="491" viewBox="0 0 555 491" fill="none" xmlns="http://www.w3.org/2000/svg">
<circle cx="32.3" cy="2.5" r="2.5" fill="white"/>
<circle cx="102.2" cy="2.5" r="2.5" fill="white"/>
<circle cx="172.1" cy="2.5" r="2.5" fill="white"/>
<circle cx="242" cy="2.5" r="2.5" fill="white"/>
<circle cx="311.9" cy="2.5" r="2.5" fill="white"/>
<circle cx="381.8" cy="2.5" r="2.5" fill="white"/>
<circle cx="451.7" cy="2.5" r="2.5" fill="white"/>
<circle cx="521.6" cy="2.5" r="2.5" fill="white"/>
<circle cx="32.3" cy="77.5" r="2.5" fill="white"/>
<circle cx="102.2" cy="77.5" r="2.5" fill="white"/>
<circle cx="172.1" cy="77.5" r="2.5" fill="white"/>
<circle cx="242" cy="77.5" r="2.5" fill="white"/>
<circle cx="311.9" cy="77.5" r="2.5" fill="white"/>
<circle cx="381.8" cy="77.5" r="2.5" fill="white"/>
<circle cx="451.7" cy="77.5" r="2.5" fill="white"/>
<circle cx="521.6" cy="77.5" r="2.5" fill="white"/>
<circle cx="32.3" cy="152.5" r="2.5" fill="white"/>
<circle cx="102.2" cy="152.5" r="2.5" fill="white"/>
<circle cx="172.1" cy="152.5" r="2.5" fill="white"/>
<circle cx="242" cy="152.5" r="2.5" fill="white"/>
<circle cx="311.9" cy="152.5" r="2.5" fill="white"/>
<circle cx="381.8" cy="152.5" r="2.5" fill="white"/>
<circle cx="451.7" cy="152.5" r="2.5" fill="white"/>
<circle cx="521.6" cy="152.5" r="2.5" fill="white"/>
<circle cx="32.3" cy="227.5" r="2.5" fill="white"/>
<circle cx="102.2" cy="227.5" r="2.5" fill="white"/>
<circle cx="172.1" cy="227.5" r="2.5" fill="white"/>
<circle cx="242" cy="227.5" r="2.5" fill="white"/>
<circle cx="311.9" cy="227.5" r="2.5" fill="white"/>
<circle cx="381.8" cy="227.5" r="2.5" fill="white"/>
<circle cx="451.7" cy="227.5" r="2.5" fill="white"/>
<circle cx="521.6" cy="227.5" r="2.5" fill="white"/>
<circle cx="32.3" cy="302.5" r="2.5" fill="white"/>
<circle cx="102.2" cy="302.5" r="2.5" fill="white"/>
<circle cx="172.1" cy="302.5" r="2.5" fill="white"/>
<circle cx="242" cy="302.5" r="2.5" fill="white"/>
<circle cx="311.9" cy="302.5" r="2.5" fill="white"/>
<circle cx="381.8" cy="302.5" r="2.5" fill="white"/>
<circle cx="451.7" cy="302.5" r="2.5" fill="white"/>
<circle cx="521.6" cy="302.5" r="2.5" fill="white"/>
<circle cx="32.3" cy="377.5" r="2.5" fill="white"/>
<circle cx="102.2" cy="377.5" r="2.5" fill="white"/>
<circle cx="172.1" cy="377.5" r="2.5" fill="white"/>
<circle cx="242" cy="377.5" r="2.5" fill="white"/>
<circle cx="311.9" cy="377.5" r="2.5" fill="white"/>
<circle cx="381.8" cy="377.5" r="2.5" fill="white"/>
<circle cx="451.7" cy="377.5" r="2.5" fill="white"/>
<circle cx="521.6" cy="377.5" r="2.5" fill="white"/>
<circle cx="32.3" cy="452.5" r="2.5" fill="white"/>
<circle cx="102.2" cy="452.5" r="2.5" fill="white"/>
<circle cx="172.1" cy="452.5" r="2.5" fill="white"/>
<circle cx="242" cy="452.5" r="2.5" fill="white"/>
<circle cx="311.9" cy="452.5" r="2.5" fill="white"/>
<circle cx="381.8" cy="452.5" r="2.5" fill="white"/>
<circle cx="451.7" cy="452.5" r="2.5" fill="white"/>
<circle cx="521.6" cy="452.5" r="2.5" fill="white"/>
</svg>
