<svg width="518" height="518" viewBox="0 0 518 518" fill="none" xmlns="http://www.w3.org/2000/svg">
<g clip-path="url(#clip0_314_1300)">
<path d="M112.039 174.754C112.039 174.754 109.218 155.304 120.597 149.724C131.976 144.144 155.303 144.129 161.951 157.994C176.689 188.75 148.927 208.703 160.189 230.444C166.571 242.773 190.863 240.282 183.724 222.934C176.705 205.879 169.802 203.626 174.567 185.759C182.303 162.477 209.277 142.057 246.955 142.197C263.006 142.722 277.097 152.954 295.013 154.584C312.929 156.215 315.973 148.672 321.209 151.814C326.444 154.957 320.756 159.77 313.168 164.843C305.58 169.916 306.656 169.38 296.06 178.61C285.834 187.517 291.608 196.252 251.117 215.101C251.117 215.101 255.476 227.414 258.795 234.183C262.115 240.952 283.836 278.8 293.036 290.309C296.511 294.655 294.86 298.823 294.86 298.823C301.115 310.207 321.253 389.816 321.253 389.816C321.253 389.816 330.923 393.68 332.484 396.324C332.805 396.293 334.092 396.992 335.162 398.789C334.206 398.251 333.216 397.645 331.936 397.475C331.516 397.416 326.7 398.082 322.101 400.03C319.588 401.095 314.914 403.294 312.04 405.72C310.919 406.773 310.36 407.174 310.298 408.589C309.421 407.571 310.033 406.893 309.71 406.106C307.728 404.119 305.185 402.528 301.027 403.433C299.379 404.053 297.549 406.356 297.646 405.784C298.703 399.593 316.545 390.319 316.545 390.319C316.545 390.319 296.339 316.222 289.294 302.54C289.294 302.54 282.187 296.952 282.236 290.887C282.236 290.887 239.271 228.622 237.45 220.107C237.45 220.107 223.856 216.357 212.608 222.213C201.361 228.068 206.361 242.41 185.38 252.363C164.399 262.316 149.173 248.681 144.767 236.664C136.704 214.743 163.671 182.349 156.112 165.24C153.064 158.338 147.123 158.561 142.52 160.818C137.917 163.075 128.618 179.059 128.618 179.059L112.039 174.754Z" fill="#F5C2BE"/>
<path d="M112.039 174.754C112.039 174.754 106.199 184.087 110.24 191.556C114.281 199.025 131.103 208.417 133.668 204.64C136.233 200.863 124.069 189.775 128.604 179.066L112.039 174.754Z" fill="#F48D83"/>
<path d="M114.984 181C111.959 176.997 114.824 197.197 118.35 199.687C124.576 204.086 132.033 207.042 133.665 204.633C135.08 202.545 131.993 198.219 129.721 192.961C127.882 188.715 125.034 194.293 114.984 181Z" fill="#121639"/>
<path d="M244.95 182.661C258.77 175.212 260.816 163.965 265.067 162.044C269.319 160.123 272.992 166.894 273.038 169.051C273.084 171.208 273.875 191.656 248.98 200.161C224.085 208.666 211.309 194.607 211.765 189.022C212.104 184.926 231.129 190.111 244.95 182.661Z" fill="#EEA79F"/>
<path d="M114.842 175.503C114.842 175.503 117.013 159.505 121.231 157.31C125.449 155.116 128.35 157.178 129.635 160.184C130.92 163.19 126.178 178.45 126.178 178.45L114.842 175.503Z" fill="#FEFAE4"/>
<path d="M120.014 169.092C120.275 169.624 120.737 170.031 121.298 170.223C121.859 170.414 122.473 170.376 123.005 170.115C123.538 169.853 123.945 169.392 124.136 168.831C124.328 168.27 124.289 167.656 124.028 167.123C123.767 166.591 123.305 166.184 122.744 165.992C122.184 165.801 121.569 165.839 121.037 166.101C120.505 166.362 120.098 166.823 119.906 167.384C119.714 167.945 119.753 168.559 120.014 169.092Z" fill="#121639"/>
</g>
<defs>
<clipPath id="clip0_314_1300">
<rect width="386" height="386" fill="white" transform="translate(0.737427 170.691) rotate(-26.1227)"/>
</clipPath>
</defs>
</svg>
