<svg width="364" height="364" viewBox="0 0 364 364" fill="none" xmlns="http://www.w3.org/2000/svg">
<path d="M117.084 23.8342C107.558 27.2467 91.3626 95.9943 96.9683 115.545C106.889 120.522 125.676 123.721 131.726 129.874C120.056 128.943 96.0618 129.479 96.0618 129.479L100.168 169.914L140.136 176.967L103.217 183.976L114.543 219.943L152.66 221.976L122.335 232.708L144.32 269.005L186.5 267.959L156.207 277.408L170.54 298.082L203.093 302.785L185.725 310.929C185.725 310.929 202.678 332.641 217.536 336.053C232.395 339.466 245.59 343.074 250.772 340.621C255.955 338.168 267.064 309.3 267.721 296.265C268.379 283.23 268.141 273.515 268.141 273.515L259.332 279.811L266.758 253.801L257.16 227.649L248.473 247.506L252.521 213.807L232.437 187.051L217.547 216.836L225.282 173.188L208.219 145.97L191.683 174.645L201.551 130.269L181.058 101.476L167.959 128.193L174.901 89.8021L153.371 67.1623L144.555 87.6337L143.016 54.3405C143.016 54.3405 128.381 38.3124 123.465 25.5866C121.769 20.0555 117.084 23.8342 117.084 23.8342Z" fill="#00737F"/>
</svg>
