<svg width="1728" height="995" viewBox="0 0 1728 995" fill="none" xmlns="http://www.w3.org/2000/svg">
<line x1="209.5" y1="4" x2="209.5" y2="987" stroke="#9D9D9D"/>
<line x1="229.5" y1="4" x2="229.5" y2="987" stroke="#9D9D9D"/>
<line x1="338.5" y1="4" x2="338.5" y2="987" stroke="#9D9D9D"/>
<line x1="358.5" y1="4" x2="358.5" y2="987" stroke="#9D9D9D"/>
<line x1="467.5" y1="4" x2="467.5" y2="987" stroke="#9D9D9D"/>
<line x1="596.5" y1="5" x2="596.5" y2="988" stroke="#9D9D9D"/>
<line x1="725.5" y1="5" x2="725.5" y2="988" stroke="#9D9D9D"/>
<line x1="854.5" y1="6" x2="854.5" y2="989" stroke="#9D9D9D"/>
<line x1="983.5" y1="7" x2="983.5" y2="990" stroke="#9D9D9D"/>
<line x1="1112.5" y1="8" x2="1112.5" y2="991" stroke="#9D9D9D"/>
<line x1="1241.5" y1="9" x2="1241.5" y2="992" stroke="#9D9D9D"/>
<line x1="1370.5" y1="10" x2="1370.5" y2="993" stroke="#9D9D9D"/>
<line x1="1499.5" y1="11" x2="1499.5" y2="994" stroke="#9D9D9D"/>
<line x1="1628.5" y1="12" x2="1628.5" y2="995" stroke="#9D9D9D"/>
<line x1="487.5" y1="4" x2="487.5" y2="987" stroke="#9D9D9D"/>
<line x1="616.5" y1="5" x2="616.5" y2="988" stroke="#9D9D9D"/>
<line x1="745.5" y1="5" x2="745.5" y2="988" stroke="#9D9D9D"/>
<line x1="874.5" y1="6" x2="874.5" y2="989" stroke="#9D9D9D"/>
<line x1="1003.5" y1="7" x2="1003.5" y2="990" stroke="#9D9D9D"/>
<line x1="1132.5" y1="8" x2="1132.5" y2="991" stroke="#9D9D9D"/>
<line x1="1261.5" y1="9" x2="1261.5" y2="992" stroke="#9D9D9D"/>
<line x1="1390.5" y1="10" x2="1390.5" y2="993" stroke="#9D9D9D"/>
<line x1="1519.5" y1="11" x2="1519.5" y2="994" stroke="#9D9D9D"/>
<line x1="100.5" y1="4" x2="100.5" y2="987" stroke="#9D9D9D"/>
<line y1="495.5" x2="1728" y2="495.5" stroke="#9D9D9D"/>
<line x1="-5.75277" y1="0.565399" x2="1722.25" y2="983.565" stroke="#9D9D9D"/>
<line x1="-0.248779" y1="991.566" x2="1727.44" y2="0.566307" stroke="#9D9D9D"/>
<line y1="111.5" x2="1728" y2="111.5" stroke="#9D9D9D"/>
<line y1="827.5" x2="1728" y2="827.5" stroke="#9D9D9D"/>
<circle cx="864" cy="497" r="240.5" stroke="#9D9D9D"/>
<circle cx="863.5" cy="495.5" r="206" stroke="#9D9D9D"/>
<circle cx="863.5" cy="495.5" r="26" stroke="#9D9D9D"/>
</svg>
